{"title":"Safe 2012 1080p BRRip x264 6ch AC3 - ViZNU [P2PDL]","uid":7565978,"size":1645552452,"categoryP":"video","categoryS":"hd___movies","magnet":"?xt=urn:btih:32d477891adb6e54a69eca1643c335238417e9c8&amp;dn=Safe+2012+1080p+BRRip+x264+6ch+AC3+-+ViZNU+%5BP2PDL%5D&amp;tr=udp%3A%2F%2Ftracker.openbittorrent.com%3A80&amp;tr=udp%3A%2F%2Fopen.demonii.com%3A1337&amp;tr=udp%3A%2F%2Ftracker.coppersurfer.tk%3A6969&amp;tr=udp%3A%2F%2Fexodus.desync.com%3A6969","seeders":1,"leechers":0,"uploader":"ValidusVyto","files":-1,"time":1345864408,"description":"_________________________  Visit us at _________________________\n  &lt;a href=&quot;\nhttp://p2pdl.com&quot; rel=&quot;nofollow&quot; target=&quot;_NEW&quot;&gt;\nhttp://p2pdl.com&lt;/a&gt;  ____________________________ &lt;a href=&quot; http://p2pdl.com&quot; rel=&quot;nofollow&quot; target=&quot;_NEW&quot;&gt; http://p2pdl.com&lt;/a&gt;\n\n &lt;a href=&quot;\nhttp://i.imgur.com/A3uta.jpg&quot; rel=&quot;nofollow&quot; target=&quot;_NEW&quot;&gt;\nhttp://i.imgur.com/A3uta.jpg&lt;/a&gt;\n\n\nRelease Title: Safe (2012)\n\t\t\t\t\t\nGenre: Action | Crime | Thriller\nIMDb Rating: 6.5/10\n\n &lt;a href=&quot;\nhttp://cinemahouse.in/movie/187/Safe&quot; rel=&quot;nofollow&quot; target=&quot;_NEW&quot;&gt;\nhttp://cinemahouse.in/movie/187/Safe&lt;/a&gt;\n\n\nPlot: Mei, a young girl whose memory holds a priceless numerical code, finds herself pursued by the Triads, the Russian mob, and corrupt NYC cops. Coming to her aid is an ex-cage fighter whose life was destroyed by the gangsters on Mei's trail.\n\n\nDirector:   Boaz Yakin\n\n\nStars: Jason Statham, Catherine Chan and Chris Sarandon.\n\n\nRated: R for strong violence throughout, and for language.\n\n\nGeneral\nFormat                         : Matroska\nFormat version                 : Version 2\nFile size                      : 1.49 GiB\nDuration                       : 1h 34mn\nOverall bit rate               : 2 264 Kbps\nMovie name                     : Safe 2012 1080p BRRip x264 6ch AC3 - ViZNU [P2PDL]\nSource                         : 1080p.BluRay.x264-WEST(Thanks)\n\nVideo\nID                             : 1\nFormat                         : AVC\nFormat/Info                    : Advanced Video Codecg\nCodec ID                       : V_MPEG4/ISO/AVC\nDuration                       : 1h 34mn\nBit rate                       : 1 880 Kbps\nWidth                          : 1 920 pixels\nHeight                         : 824 pixels\nDisplay aspect ratio           : 2.35:1\nFrame rate                     : 23.976 fps\nColor space                    : YUV\nChroma subsampling             : 4:2:0\nStream size                    : 1.21 GiB (81%)\nWriting library                : x264 core 125 r2200 999b753\nDefault                        : Yes\n\n\nAudio\nID                             : 2\nFormat                         : AC-3\nFormat/Info                    : Audio Coding 3\nCodec ID                       : A_AC3\nDuration                       : 1h 34mn\nBit rate mode                  : Constant\nBit rate                       : 384 Kbps\nChannel(s)                     : 6 channels\nChannel positions              : Front: L C R, Side: L R, LFE\nSampling rate                  : 44.1 KHz\nStream size                    : 259 MiB (17%)\nLanguage                       : English\nDefault                        : Yes\n\n\n\nSubtitle                       : No\n\n\nScreens:\n &lt;a href=&quot;\nhttp://i.imgbox.com/acbYPfv8.png&quot; rel=&quot;nofollow&quot; target=&quot;_NEW&quot;&gt;\nhttp://i.imgbox.com/acbYPfv8.png&lt;/a&gt;\n &lt;a href=&quot;\nhttp://i.imgbox.com/abhZqmub.png&quot; rel=&quot;nofollow&quot; target=&quot;_NEW&quot;&gt;\nhttp://i.imgbox.com/abhZqmub.png&lt;/a&gt;\n &lt;a href=&quot;\nhttp://i.imgbox.com/abmoX4So.png&quot; rel=&quot;nofollow&quot; target=&quot;_NEW&quot;&gt;\nhttp://i.imgbox.com/abmoX4So.png&lt;/a&gt;\n &lt;a href=&quot;\nhttp://i.imgbox.com/abnBb7vJ.png&quot; rel=&quot;nofollow&quot; target=&quot;_NEW&quot;&gt;\nhttp://i.imgbox.com/abnBb7vJ.png&lt;/a&gt;\n &lt;a href=&quot;\nhttp://i.imgbox.com/adpzQBX4.png&quot; rel=&quot;nofollow&quot; target=&quot;_NEW&quot;&gt;\nhttp://i.imgbox.com/adpzQBX4.png&lt;/a&gt;\n &lt;a href=&quot;\nhttp://i.imgbox.com/aclSlRhQ.png&quot; rel=&quot;nofollow&quot; target=&quot;_NEW&quot;&gt;\nhttp://i.imgbox.com/aclSlRhQ.png&lt;/a&gt;\n &lt;a href=&quot;\nhttp://i.imgbox.com/adxij6vW.png&quot; rel=&quot;nofollow&quot; target=&quot;_NEW&quot;&gt;\nhttp://i.imgbox.com/adxij6vW.png&lt;/a&gt;\n &lt;a href=&quot;\nhttp://i.imgbox.com/acxUa3hH.png&quot; rel=&quot;nofollow&quot; target=&quot;_NEW&quot;&gt;\nhttp://i.imgbox.com/acxUa3hH.png&lt;/a&gt;\n\n\n\nSample:\n\n\n\n------------------------------------------------------------------------\n\n\nRecommend you to use VLC player. Check sample to be sure. Enjoy!\n\n\nGreets to: srkfan, Vitamin_X, MgB, staff members at ExtraTorrent, TPB,KAT, 1337x, PublicHD, Ahashare, SilverTorrent, TorrentMafia, P2PDL, and all others\n\n\nEncoder Notes: Looking For Early Access To Anything You Can Provide DVDScr, R5, DVDRips, BluRay, Direct Audio, Early Music Releases, Seedboxes, Links, Dedicated Servers anything u can provide, Advance / Promo CDs/DVDs. If You Got anything to offer contact me at &quot;&lt;a class=&quot;__cf_email__&quot; href=&quot;/cdn-cgi/l/email-protection&quot; data-cfemail=&quot;23404c4d5742405763574a4d5a4e0d4656&quot;&gt;[email&amp;#160;protected]&lt;/a&gt;&lt;script data-cfhash='f9e31' type=&quot;text/javascript&quot;&gt;\n/* &lt;![CDATA[ */!function(){try{var t=&quot;currentScript&quot;in document?document.currentScript:function(){for(var t=document.getElementsByTagName(&quot;script&quot;),e=t.length;e--;)if(t[e].getAttribute(&quot;data-cfhash&quot;))return t[e]}();if(t&amp;&amp;t.previousSibling){var e,r,n,i,c=t.previousSibling,a=c.getAttribute(&quot;data-cfemail&quot;);if(a){for(e=&quot;&quot;,r=parseInt(a.substr(0,2),16),n=2;a.length-n;n+=2)i=parseInt(a.substr(n,2),16)^r,e+=String.fromCharCode(i);e=document.createTextNode(e),c.parentNode.replaceChild(e,c)}t.parentNode.removeChild(t);}}catch(u){}}()/* ]]&gt; */&lt;/script&gt;&quot;\n","torrent":{"xt":"urn:btih:32d477891adb6e54a69eca1643c335238417e9c8","amp;dn":"Safe+2012+1080p+BRRip+x264+6ch+AC3+-+ViZNU+%5BP2PDL%5D","amp;tr":["udp%3A%2F%2Ftracker.openbittorrent.com%3A80","udp%3A%2F%2Fopen.demonii.com%3A1337","udp%3A%2F%2Ftracker.coppersurfer.tk%3A6969","udp%3A%2F%2Fexodus.desync.com%3A6969"],"infoHash":"32d477891adb6e54a69eca1643c335238417e9c8","infoHashBuffer":{"type":"Buffer","data":[50,212,119,137,26,219,110,84,166,158,202,22,67,195,53,35,132,23,233,200]},"announce":[],"urlList":[]}}